<svg xmlns="http://www.w3.org/2000/svg"  viewBox="0 0 64 64" width="64px" height="64px"><path d="M 32 6 L 32 7 L 32 10 L 32 17 L 35 17 L 36.796875 10.53125 C 46.639041 12.721168 54 21.498331 54 32 C 54 44.15 44.15 54 32 54 C 19.85 54 10 44.15 10 32 C 10 25.654 12.690281 19.940781 16.988281 15.925781 L 13.960938 13.287109 C 9.0559375 18.016109 6 24.649 6 32 C 6 46.359 17.641 58 32 58 C 46.359 58 58 46.359 58 32 C 58 17.641 46.359 6 32 6 z M 20.978516 19.564453 L 19.564453 20.978516 L 28.056641 31.332031 A 4 4 0 0 0 32 36 A 4 4 0 0 0 32 28 A 4 4 0 0 0 31.335938 28.060547 L 20.978516 19.564453 z"/></svg>